<svg xmlns="http://www.w3.org/2000/svg" xmlns:xlink="http://www.w3.org/1999/xlink" width="1920" zoomAndPan="magnify" viewBox="0 0 1440 809.999993" height="1080" preserveAspectRatio="xMidYMid meet" version="1.0"><defs><g/><clipPath id="f8517bb7f0"><path d="M 761 408 L 768 408 L 768 425.25 L 761 425.25 Z M 761 408 " clip-rule="nonzero"/></clipPath><clipPath id="1e231033cc"><path d="M 760 407 L 769 407 L 769 425.25 L 760 425.25 Z M 760 407 " clip-rule="nonzero"/></clipPath><clipPath id="ce1cedd2e5"><path d="M 768 409 L 772 409 L 772 425.25 L 768 425.25 Z M 768 409 " clip-rule="nonzero"/></clipPath><clipPath id="55ce62d4a3"><path d="M 767 409 L 773 409 L 773 425.25 L 767 425.25 Z M 767 409 " clip-rule="nonzero"/></clipPath><clipPath id="082569bcb0"><path d="M 770 409 L 774 409 L 774 425.25 L 770 425.25 Z M 770 409 " clip-rule="nonzero"/></clipPath><clipPath id="846d43acd2"><path d="M 770 408 L 774 408 L 774 425.25 L 770 425.25 Z M 770 408 " clip-rule="nonzero"/></clipPath><clipPath id="715c69b050"><path d="M 771 405 L 779 405 L 779 425.25 L 771 425.25 Z M 771 405 " clip-rule="nonzero"/></clipPath><clipPath id="6b7d32bfae"><path d="M 770 405 L 779 405 L 779 425.25 L 770 425.25 Z M 770 405 " clip-rule="nonzero"/></clipPath><clipPath id="ffce530dd6"><path d="M 774 389 L 783 389 L 783 409 L 774 409 Z M 774 389 " clip-rule="nonzero"/></clipPath><clipPath id="c728ae5322"><path d="M 764 384 L 772 384 L 772 392 L 764 392 Z M 764 384 " clip-rule="nonzero"/></clipPath><clipPath id="8213137178"><path d="M 760 384 L 766 384 L 766 389 L 760 389 Z M 760 384 " clip-rule="nonzero"/></clipPath><clipPath id="cddb7bad08"><path d="M 755.25 388 L 770 388 L 770 409 L 755.25 409 Z M 755.25 388 " clip-rule="nonzero"/></clipPath><clipPath id="279326609b"><path d="M 755.25 388 L 770 388 L 770 410 L 755.25 410 Z M 755.25 388 " clip-rule="nonzero"/></clipPath></defs><g clip-path="url(#f8517bb7f0)"><path fill="#ffffff" d="M 761.339844 425.390625 C 761.339844 425.390625 762.136719 418.308594 762.234375 416.214844 C 762.335938 414.121094 762.660156 408.1875 762.660156 408.1875 L 762.785156 408.261719 C 762.785156 408.261719 762.785156 413.871094 762.933594 414.320312 C 763.082031 414.769531 762.933594 416.117188 763.234375 416.316406 C 763.53125 416.515625 765.925781 419.058594 766.226562 419.207031 C 766.523438 419.359375 767.421875 420.453125 767.472656 420.753906 C 767.519531 421.054688 767.96875 425.390625 767.769531 425.390625 Z M 761.339844 425.390625 " fill-opacity="1" fill-rule="nonzero"/></g><g clip-path="url(#1e231033cc)"><path stroke-linecap="butt" transform="matrix(0.195471, 0, 0, 0.195471, 614.503751, 312.283655)" fill="none" stroke-linejoin="miter" d="M 751.189371 578.636709 C 751.189371 578.636709 755.266052 542.406198 755.765646 531.694916 C 756.285223 520.983635 757.943873 490.628342 757.943873 490.628342 L 758.583352 491.008033 C 758.583352 491.008033 758.583352 519.704676 759.342734 522.002805 C 760.102116 524.300935 759.342734 531.195323 760.881482 532.214493 C 762.400246 533.233664 774.650275 546.243075 776.189022 547.002457 C 777.707786 547.781823 782.304045 553.377268 782.563834 554.916016 C 782.803638 556.454763 785.101768 578.636709 784.082597 578.636709 Z M 751.189371 578.636709 " stroke="#000000" stroke-width="0.505" stroke-opacity="1" stroke-miterlimit="4"/></g><g clip-path="url(#ce1cedd2e5)"><path fill="#ffffff" d="M 769.589844 425.390625 L 769.117188 415.417969 C 769.117188 415.417969 768.867188 415.117188 768.96875 414.570312 C 769.066406 414.023438 768.96875 412.675781 768.96875 412.675781 C 768.96875 412.675781 768.570312 411.777344 768.617188 411.527344 C 768.667969 411.28125 768.867188 410.382812 768.867188 410.382812 L 768.21875 409.933594 L 768.46875 409.683594 L 769.464844 409.984375 C 769.464844 409.984375 769.566406 410.230469 769.316406 410.480469 C 769.066406 410.730469 769.417969 411.179688 769.515625 411.828125 C 769.617188 412.476562 769.765625 412.777344 769.515625 413.222656 C 769.265625 413.671875 769.265625 414.71875 769.417969 415.269531 C 769.566406 415.816406 770.015625 416.464844 770.164062 416.613281 C 770.3125 416.765625 769.664062 416.863281 769.714844 417.511719 C 769.765625 418.160156 770.265625 419.359375 770.214844 419.707031 C 770.164062 420.054688 769.566406 420.355469 770.3125 421.152344 C 771.0625 421.949219 770.8125 421.851562 771.113281 423.148438 C 771.410156 424.445312 771.960938 425.390625 771.960938 425.390625 Z M 769.589844 425.390625 " fill-opacity="1" fill-rule="nonzero"/></g><g clip-path="url(#55ce62d4a3)"><path stroke-linecap="butt" transform="matrix(0.195471, 0, 0, 0.195471, 614.503751, 312.283655)" fill="none" stroke-linejoin="miter" d="M 793.395018 578.636709 L 790.976986 527.618235 C 790.976986 527.618235 789.698027 526.079487 790.217604 523.281764 C 790.717197 520.484041 790.217604 513.589653 790.217604 513.589653 C 790.217604 513.589653 788.179263 508.993394 788.419068 507.714435 C 788.678856 506.45546 789.698027 501.859201 789.698027 501.859201 L 786.380727 499.561071 L 787.659686 498.282112 L 792.755538 499.82086 C 792.755538 499.82086 793.275115 501.079835 791.996156 502.358794 C 790.717197 503.637753 792.515733 505.935883 793.015327 509.253183 C 793.534904 512.570483 794.294286 514.10923 793.015327 516.387376 C 791.736368 518.685505 791.736368 524.041146 792.515733 526.858853 C 793.275115 529.656575 795.573245 532.973875 796.332627 533.733257 C 797.092009 534.512623 793.774709 535.012216 794.034497 538.329516 C 794.294286 541.646816 796.852204 547.781823 796.592415 549.560375 C 796.332627 551.338927 793.275115 552.877675 797.092009 556.954357 C 800.928886 561.031039 799.649927 560.531445 801.188674 567.166045 C 802.707438 573.800645 805.525145 578.636709 805.525145 578.636709 Z M 793.395018 578.636709 " stroke="#000000" stroke-width="0.505" stroke-opacity="1" stroke-miterlimit="4"/></g><g clip-path="url(#082569bcb0)"><path fill="#ffffff" d="M 772.457031 409.386719 C 772.457031 409.386719 771.734375 410.257812 770.859375 410.308594 C 770.636719 410.320312 770.613281 410.730469 770.910156 410.832031 C 771.210938 410.933594 771.210938 411.878906 771.210938 412.078125 C 771.210938 412.242188 771.648438 418.996094 771.804688 421.378906 C 771.835938 421.890625 772.03125 424.445312 772.03125 424.445312 C 771.871094 425.390625 771.605469 424.472656 771.433594 425.390625 L 773.304688 425.390625 L 773.128906 422.078125 C 773.128906 422.078125 772.753906 423.671875 772.582031 422 C 772.554688 421.75 772.058594 419.609375 772.105469 419.058594 C 772.15625 418.511719 771.90625 412.527344 771.859375 411.679688 C 771.808594 410.832031 772.457031 409.386719 772.457031 409.386719 Z M 772.457031 409.386719 " fill-opacity="1" fill-rule="nonzero"/></g><g clip-path="url(#846d43acd2)"><path stroke-linecap="butt" transform="matrix(0.195471, 0, 0, 0.195471, 614.503751, 312.283655)" fill="none" stroke-linejoin="miter" d="M 808.063079 496.763349 C 808.063079 496.763349 804.366088 501.219721 799.889731 501.47951 C 798.750659 501.539461 798.630756 503.637753 800.14952 504.15733 C 801.688268 504.676907 801.688268 509.512971 801.688268 510.532142 C 801.688268 511.371458 803.926446 545.923335 804.725795 558.113413 C 804.885665 560.731283 805.884852 573.800645 805.884852 573.800645 C 805.065519 578.636709 803.706625 573.940531 802.82734 578.636709 L 812.399549 578.636709 L 811.500281 561.690502 C 811.500281 561.690502 809.581843 569.843865 808.702558 561.290827 C 808.562672 560.011868 806.024738 549.060782 806.264543 546.243075 C 806.524331 543.445352 805.245372 512.830271 805.005567 508.493801 C 804.745779 504.15733 808.063079 496.763349 808.063079 496.763349 Z M 808.063079 496.763349 " stroke="#000000" stroke-width="0.505" stroke-opacity="1" stroke-miterlimit="4"/></g><g clip-path="url(#715c69b050)"><path fill="#ffffff" d="M 771.609375 410.507812 L 771.785156 412.128906 C 771.785156 412.128906 771.761719 411.339844 772.199219 411.820312 C 772.382812 412.023438 772.308594 412.558594 772.308594 413.324219 C 772.308594 414.222656 772.257812 415.570312 772.359375 415.820312 C 772.457031 416.066406 772.484375 420.039062 772.757812 420.90625 C 773.214844 422.351562 773.089844 425.347656 773.230469 425.394531 C 773.382812 425.441406 774.652344 425.394531 774.652344 425.394531 L 774.476562 418.835938 C 774.476562 419.085938 774.027344 421.558594 773.855469 417.5625 C 773.8125 416.617188 773.855469 415.820312 773.605469 415.570312 C 773.355469 415.320312 773.804688 412.429688 773.753906 411.179688 C 773.703125 409.933594 774.054688 410.132812 774.101562 410.980469 C 774.152344 411.828125 774.152344 414.722656 774.152344 414.722656 C 774.152344 414.722656 774.003906 416.914062 774.253906 417.265625 C 774.503906 417.613281 774.300781 419.808594 774.300781 419.808594 L 774.378906 425.390625 L 776.746094 425.390625 C 776.746094 425.390625 776.445312 417.414062 776.246094 416.867188 C 776.046875 416.316406 776.199219 414.421875 776.097656 414.222656 C 776 414.023438 776.296875 412.628906 776.296875 412.628906 L 776.296875 411.332031 C 776.296875 411.332031 776.796875 409.785156 776.996094 409.636719 C 777.195312 409.484375 778.316406 407.054688 778.019531 407.003906 C 777.71875 406.953125 775.699219 407.941406 775.5 407.789062 C 775.300781 407.640625 774.902344 406.941406 774.902344 406.941406 C 774.53125 406.808594 774.207031 406.242188 773.964844 405.71875 L 772.96875 405.609375 C 772.96875 405.609375 772.53125 405.546875 773.09375 405.945312 C 773.335938 406.117188 773.605469 406.03125 773.753906 406.445312 C 773.847656 406.695312 774.351562 406.792969 774.351562 406.792969 C 774.351562 406.792969 774.949219 407.789062 774.453125 407.789062 C 773.953125 407.789062 772.558594 407.941406 772.457031 408.289062 C 772.359375 408.636719 771.859375 408.738281 771.410156 408.6875 C 770.960938 408.636719 771.0625 408.988281 771.511719 409.035156 C 771.957031 409.085938 772.109375 409.234375 772.207031 409.585938 C 772.308594 409.933594 771.609375 410.507812 771.609375 410.507812 Z M 771.609375 410.507812 " fill-opacity="1" fill-rule="nonzero"/></g><g clip-path="url(#6b7d32bfae)"><path stroke-linecap="butt" transform="matrix(0.195471, 0, 0, 0.195471, 614.503751, 312.283655)" fill="none" stroke-linejoin="miter" d="M 803.726608 502.49868 L 804.625876 510.79193 C 804.625876 510.79193 804.505974 506.755216 806.744152 509.213215 C 807.683388 510.252369 807.303697 512.990141 807.303697 516.906953 C 807.303697 521.503212 807.043908 528.3976 807.563485 529.676559 C 808.063079 530.935534 808.202965 551.258992 809.601826 555.695381 C 811.939923 563.089363 811.300444 578.416888 812.019858 578.656692 C 812.799224 578.896497 819.293938 578.656692 819.293938 578.656692 L 818.39467 545.104002 C 818.39467 546.382961 816.09654 559.032665 815.217256 538.589305 C 814.997435 533.753241 815.217256 529.676559 813.938297 528.3976 C 812.659338 527.118641 814.957467 512.330678 814.697679 505.935883 C 814.43789 499.561071 816.236426 500.580242 816.476231 504.916712 C 816.73602 509.253183 816.73602 524.06113 816.73602 524.06113 C 816.73602 524.06113 815.976638 535.272005 817.255597 537.070541 C 818.534556 538.849093 817.495401 550.079952 817.495401 550.079952 L 817.895076 578.636709 L 830.005219 578.636709 C 830.005219 578.636709 828.466472 537.829923 827.447301 535.0322 C 826.428131 532.214493 827.207496 522.522382 826.687919 521.503212 C 826.188326 520.484041 827.70709 513.349848 827.70709 513.349848 L 827.70709 506.715248 C 827.70709 506.715248 830.265008 498.801689 831.284178 498.042308 C 832.303349 497.262942 838.03868 484.833059 836.519917 484.573271 C 834.981169 484.313482 824.649578 489.369367 823.630408 488.590001 C 822.611237 487.830619 820.572897 484.253531 820.572897 484.253531 C 818.674442 483.574084 817.015792 480.676442 815.7768 477.998622 L 810.680948 477.439077 C 810.680948 477.439077 808.44277 477.119338 811.320428 479.157679 C 812.559419 480.036963 813.938297 479.597321 814.697679 481.715597 C 815.177288 482.994556 817.75519 483.494149 817.75519 483.494149 C 817.75519 483.494149 820.812701 488.590001 818.274767 488.590001 C 815.716849 488.590001 808.582656 489.369367 808.063079 491.147919 C 807.563485 492.926472 805.005567 493.446049 802.707438 493.18626 C 800.409309 492.926472 800.928886 494.725008 803.227015 494.964812 C 805.505161 495.224601 806.284526 495.983983 806.78412 497.782519 C 807.303697 499.561071 803.726608 502.49868 803.726608 502.49868 Z M 803.726608 502.49868 " stroke="#000000" stroke-width="0.505" stroke-opacity="1" stroke-miterlimit="4"/></g><path fill="#ffffff" d="M 775.472656 407.851562 C 775.472656 407.851562 777.777344 408.117188 777.929688 407.601562 C 778.128906 406.929688 779.75 405.085938 780.039062 404.796875 C 780.261719 404.574219 780.886719 403.898438 781.132812 402.953125 C 781.382812 402.003906 782.28125 400.410156 782.332031 399.5625 C 782.378906 398.714844 782.78125 397.816406 782.878906 397.269531 C 782.980469 396.71875 783.027344 395.324219 782.679688 394.726562 C 782.332031 394.125 782.117188 394.1875 782.269531 393.839844 C 782.417969 393.492188 781.882812 392.878906 781.683594 392.679688 C 781.484375 392.480469 781.433594 392.230469 781.53125 392.082031 C 781.632812 391.933594 781.382812 391.132812 781.183594 390.933594 C 780.984375 390.734375 780.363281 390.273438 779.988281 390.136719 C 779.4375 389.9375 778.667969 389.941406 778.292969 390.039062 C 777.894531 390.136719 777.957031 392.648438 778.140625 392.582031 C 778.792969 392.339844 779.292969 392.128906 779.4375 392.828125 C 779.46875 392.972656 779.800781 392.773438 779.835938 393.078125 C 779.867188 393.332031 780.015625 393.785156 779.9375 393.976562 C 779.8125 394.277344 778.492188 393.976562 778.492188 393.976562 C 778.492188 393.976562 778.191406 394.277344 778.292969 394.824219 C 778.390625 395.371094 778.34375 395.773438 778.042969 396.070312 C 777.742188 396.371094 777.59375 396.820312 777.894531 396.820312 C 778.191406 396.820312 780.359375 396.644531 779.886719 397.367188 C 779.53125 397.910156 779.4375 397.957031 779.339844 398.238281 C 779.128906 398.855469 778.238281 399.046875 778.140625 399.261719 C 777.824219 399.996094 777.394531 399.585938 777.195312 399.613281 C 776.621094 399.6875 775.5 398.8125 775.300781 398.964844 C 775.179688 399.054688 774.675781 399.742188 775.503906 399.558594 C 775.675781 399.523438 775.699219 399.8125 775.699219 399.8125 C 775.988281 399.714844 777.941406 400.257812 777.941406 400.257812 C 777.941406 400.257812 778.191406 400.160156 778.042969 400.859375 C 777.894531 401.554688 777.496094 403.003906 777.496094 403.25 C 777.496094 403.5 777.59375 404.546875 777.046875 404.847656 C 776.496094 405.144531 775.898438 405.746094 775.898438 406.042969 C 775.898438 406.261719 775.90625 406.855469 775.835938 407.152344 C 775.765625 407.453125 775.597656 407.640625 775.597656 407.640625 Z M 775.472656 407.851562 " fill-opacity="1" fill-rule="nonzero"/><g clip-path="url(#ffce530dd6)"><path stroke-linecap="butt" transform="matrix(0.195471, 0, 0, 0.195471, 614.503751, 312.283655)" fill="none" stroke-linejoin="miter" d="M 823.490522 488.909741 C 823.490522 488.909741 835.280925 490.268635 836.060291 487.630782 C 837.079461 484.19358 845.372711 474.761257 846.851507 473.282461 C 847.99058 472.143388 851.187978 468.686202 852.446953 463.850138 C 853.725912 458.99409 858.322171 450.840727 858.58196 446.504256 C 858.821764 442.167786 860.880089 437.571527 861.379682 434.773804 C 861.899259 431.956098 862.139064 424.821905 860.360512 421.764393 C 858.58196 418.686898 857.482854 419.006638 858.26222 417.228085 C 859.021602 415.449533 856.28383 412.312087 855.26466 411.292916 C 854.245489 410.273746 853.985701 408.994787 854.485294 408.235405 C 855.004871 407.476023 853.725912 403.379357 852.706742 402.360187 C 851.687571 401.341017 848.510157 398.982936 846.591719 398.283505 C 843.774012 397.264335 839.837217 397.284318 837.918778 397.783912 C 835.880437 398.283505 836.200177 411.133046 837.139412 410.793323 C 840.476696 409.554331 843.034614 408.47521 843.774012 412.052298 C 843.933882 412.791696 845.6325 411.772526 845.812353 413.331257 C 845.972223 414.6302 846.731605 416.948313 846.33193 417.927516 C 845.692451 419.466264 838.937949 417.927516 838.937949 417.927516 C 838.937949 417.927516 837.399201 419.466264 837.918778 422.263987 C 838.418371 425.061709 838.178567 427.120034 836.639819 428.638798 C 835.101072 430.177545 834.34169 432.475675 835.880437 432.475675 C 837.399201 432.475675 848.490174 431.576407 846.072142 435.273398 C 844.253622 438.051137 843.774012 438.290942 843.274419 439.72977 C 842.195297 442.8872 837.639006 443.866403 837.139412 444.965509 C 835.52073 448.722451 833.322519 446.624159 832.303349 446.764045 C 829.36574 447.143736 823.630408 442.667379 822.611237 443.446745 C 821.991742 443.906371 819.41384 447.423508 823.650392 446.484273 C 824.529676 446.304419 824.649578 447.783215 824.649578 447.783215 C 826.128375 447.283622 836.120242 450.061361 836.120242 450.061361 C 836.120242 450.061361 837.399201 449.561768 836.639819 453.138856 C 835.880437 456.695961 833.842096 464.109926 833.842096 465.368902 C 833.842096 466.647861 834.34169 472.003502 831.543967 473.542249 C 828.72626 475.061013 825.668749 478.138508 825.668749 479.657272 C 825.668749 480.776361 825.708716 483.813889 825.349009 485.332652 C 824.989302 486.8714 824.130001 487.830619 824.130001 487.830619 Z M 823.490522 488.909741 " stroke="#000000" stroke-width="0.505" stroke-opacity="1" stroke-miterlimit="4"/></g><path stroke-linecap="butt" transform="matrix(0.195471, 0, 0, 0.195471, 614.503751, 312.283655)" fill-opacity="1" fill="#ffffff" fill-rule="nonzero" stroke-linejoin="miter" d="M 811.12059 408.495194 C 811.12059 408.495194 809.581843 405.937275 810.361208 404.918105 C 811.12059 403.898935 811.380379 401.341017 811.380379 401.341017 L 812.639354 400.201944 L 811.620184 398.423391 C 811.620184 398.423391 810.361208 395.725587 811.12059 393.947035 C 810.10142 377.340551 835.740551 387.092614 831.264195 394.706417 C 830.764601 399.302676 840.836403 396.125262 841.35598 397.644026 C 841.855574 399.182773 848.610076 404.918105 838.278485 410.653437 C 836.799689 411.492754 836.619835 411.812493 836.120242 413.850834 C 835.600665 415.889175 828.986049 427.619627 828.206683 429.657968 C 827.447301 431.696309 827.187513 432.475675 825.908554 433.73465 C 824.649578 435.013609 823.610424 438.590698 824.130001 440.36925 C 824.649578 442.167786 823.370619 444.965509 822.09166 446.504256 C 820.812701 448.02302 811.840005 450.381101 808.562672 448.282809 C 798.870561 442.0279 796.452529 446.124565 796.192741 445.604988 C 795.932952 445.105395 799.51004 439.350079 799.51004 439.350079 C 799.51004 439.350079 800.669097 444.206127 803.986397 443.04707 C 805.28534 442.607428 807.163811 444.206127 806.78412 441.648209 C 806.924006 440.169413 806.724169 436.832129 808.322867 436.812145 C 809.581843 437.831316 811.640167 437.05195 812.899143 436.03278 C 814.178102 435.013609 816.995808 432.975268 816.995808 432.975268 C 816.995808 432.975268 817.495401 431.456504 817.235613 428.379009 C 816.995808 425.321498 817.75519 419.206475 818.254783 418.447093 C 818.77436 417.667728 817.75519 413.331257 819.034149 413.850834 C 820.313108 414.350428 822.351449 411.552705 823.370619 411.033128 C 824.38979 410.533534 828.206683 409.514364 828.466472 407.476023 C 828.72626 405.437682 827.70709 403.379357 827.70709 403.379357 C 827.70709 403.379357 822.591254 399.562464 821.572083 399.822253 C 820.552913 400.062058 816.73602 398.543294 815.716849 400.062058 C 814.697679 401.600805 812.139761 405.177894 812.139761 406.197064 C 812.139761 407.216235 811.12059 408.495194 811.12059 408.495194 Z M 811.12059 408.495194 " stroke="#000000" stroke-width="0.505" stroke-opacity="1" stroke-miterlimit="4"/><path stroke-linecap="butt" transform="matrix(0.195471, 0, 0, 0.195471, 614.503751, 312.283655)" fill-opacity="1" fill="#ffffff" fill-rule="nonzero" stroke-linejoin="miter" d="M 799.909715 431.076813 L 801.548381 435.413284 C 801.548381 435.413284 804.246186 426.860245 805.005567 427.120034 C 805.764949 427.379823 806.284526 424.562116 806.284526 424.562116 L 807.043908 421.244816 C 807.043908 421.244816 809.082249 417.168134 808.582656 416.148964 C 808.063079 415.129793 809.262103 413.830851 809.841631 412.072282 C 811.000688 408.615096 813.538622 402.340203 808.822461 407.476023 C 808.822461 407.476023 807.423599 406.456853 807.043908 404.538414 C 806.684201 402.779845 805.505161 402.85978 807.683388 401.600805 C 808.622623 401.061244 808.44277 398.922985 808.44277 398.922985 C 808.44277 398.922985 813.039029 398.663196 813.798411 397.404221 C 814.577776 396.125262 817.495401 384.774501 817.495401 384.774501 C 817.495401 384.774501 813.158931 385.274094 812.659338 383.235753 C 812.139761 381.197412 809.082249 377.380519 809.082249 377.380519 C 809.082249 377.380519 797.271862 370.026505 796.072838 372.264683 C 795.033684 374.203105 791.076905 376.381332 790.897051 377.240633 C 790.437425 379.57873 795.053668 379.658665 795.053668 379.658665 C 795.053668 379.658665 801.948056 378.399689 802.967227 381.716989 C 803.986397 385.034289 803.46682 382.73616 803.986397 385.274094 C 804.48599 387.832012 801.688268 388.091801 801.688268 388.091801 C 801.688268 388.091801 797.092009 391.908694 797.092009 394.966205 C 797.092009 398.0437 797.092009 400.841423 795.053668 400.841423 C 793.015327 400.841423 790.717197 398.803082 790.457409 396.125262 C 790.35749 395.086108 785.181703 394.686433 787.819556 397.624042 C 789.558141 399.582448 788.678856 402.120382 789.17845 402.380171 C 790.19762 402.879764 792.49575 405.177894 794.034497 405.697471 C 795.573245 406.197064 796.592415 408.235405 794.034497 411.053112 C 791.476579 413.850834 788.159279 419.206475 786.640515 419.726052 C 785.101768 420.225646 786.640515 425.321498 787.659686 425.321498 C 788.678856 425.321498 790.437425 425.161628 791.736368 427.619627 C 792.615652 429.258294 799.13035 428.638798 799.649927 427.619627 C 800.14952 426.600457 802.967227 423.163255 802.707438 426.360652 C 802.387698 430.437334 799.909715 431.076813 799.909715 431.076813 Z M 799.909715 431.076813 " stroke="#000000" stroke-width="0.505" stroke-opacity="1" stroke-miterlimit="4"/><path fill="#ffffff" d="M 768.867188 390.511719 L 769.015625 389.789062 L 769.117188 388.789062 L 769.316406 388.191406 L 769.417969 387.496094 C 769.417969 387.496094 769.566406 387.144531 769.714844 386.945312 C 769.769531 386.871094 769.417969 386.472656 770.261719 386.40625 C 770.808594 386.363281 770.289062 385.125 770.289062 385.125 C 770.289062 385.125 769.214844 385.75 769.117188 385 C 769.09375 384.824219 767.820312 384.203125 767.570312 384.152344 C 767.320312 384.105469 765.351562 384.0625 765.175781 384.203125 C 764.40625 384.828125 764.628906 384.902344 765.226562 384.550781 C 765.53125 384.375 766.125 384.453125 766.125 384.453125 C 766.125 384.453125 766.574219 384.601562 766.625 384.953125 C 766.671875 385.300781 766.425781 385.601562 766.175781 385.699219 C 765.925781 385.800781 765.777344 386.546875 765.824219 386.796875 C 765.875 387.046875 766.023438 387.742188 766.226562 387.84375 C 766.425781 387.941406 766.773438 388.589844 766.871094 388.789062 C 766.972656 388.992188 767.167969 389.386719 766.921875 389.4375 C 766.101562 389.613281 766.722656 390.511719 767.273438 390.136719 C 767.9375 389.902344 768.464844 390.21875 768.867188 390.511719 Z M 768.867188 390.511719 " fill-opacity="1" fill-rule="nonzero"/><g clip-path="url(#c728ae5322)"><path stroke-linecap="butt" transform="matrix(0.195471, 0, 0, 0.195471, 614.503751, 312.283655)" fill="none" stroke-linejoin="miter" d="M 789.698027 400.201944 L 790.457409 396.504953 L 790.976986 391.389117 L 791.996156 388.331605 L 792.515733 384.774501 C 792.515733 384.774501 793.275115 382.975965 794.034497 381.956794 C 794.31427 381.577103 792.515733 379.538762 796.83222 379.199039 C 799.629943 378.979218 796.972106 372.644374 796.972106 372.644374 C 796.972106 372.644374 791.476579 375.841771 790.976986 372.004894 C 790.857083 371.105626 784.342386 367.928213 783.063427 367.668424 C 781.784468 367.428619 771.712666 367.208798 770.813398 367.928213 C 766.876602 371.12561 768.015675 371.505301 771.073186 369.706765 C 772.631918 368.807497 775.669445 369.207172 775.669445 369.207172 C 775.669445 369.207172 777.967575 369.966553 778.227363 371.76509 C 778.467168 373.543642 777.208193 375.08239 775.929234 375.581983 C 774.650275 376.10156 773.890893 379.918453 774.130698 381.197412 C 774.390486 382.476371 775.149868 386.033476 776.189022 386.553053 C 777.208193 387.052646 778.986745 390.369946 779.486339 391.389117 C 780.005916 392.428271 781.005102 394.446628 779.746127 394.706417 C 775.549543 395.605685 778.726957 400.201944 781.544663 398.283505 C 784.941898 397.084481 787.639702 398.703164 789.698027 400.201944 Z M 789.698027 400.201944 " stroke="#000000" stroke-width="0.505" stroke-opacity="1" stroke-miterlimit="4"/></g><path fill="#ffffff" d="M 760.9375 387.742188 C 760.9375 387.742188 761.1875 386.546875 761.636719 386.398438 C 762.085938 386.246094 762.835938 386.246094 762.984375 386.046875 C 763.132812 385.847656 763.382812 385.75 763.632812 385.648438 C 763.882812 385.550781 764.457031 385.1875 764.730469 384.949219 C 765.625 384.164062 765.277344 384.171875 764.480469 384.550781 C 764.152344 384.707031 763.433594 384.453125 763.433594 384.453125 L 762.535156 384.601562 C 762.535156 384.601562 761.738281 384.851562 761.488281 385.398438 C 761.238281 385.949219 760.640625 387.34375 760.640625 387.34375 C 760.640625 387.34375 760.664062 388.117188 760.640625 388.390625 C 760.621094 388.597656 760.9375 387.742188 760.9375 387.742188 Z M 760.9375 387.742188 " fill-opacity="1" fill-rule="nonzero"/><g clip-path="url(#8213137178)"><path stroke-linecap="butt" transform="matrix(0.195471, 0, 0, 0.195471, 614.503751, 312.283655)" fill="none" stroke-linejoin="miter" d="M 749.131046 386.033476 C 749.131046 386.033476 750.410005 379.918453 752.708134 379.159071 C 755.006264 378.379706 758.843141 378.379706 759.602523 377.360535 C 760.361905 376.341365 761.640864 375.841771 762.919823 375.322194 C 764.198782 374.822601 767.136391 372.964114 768.535252 371.745106 C 773.111527 367.728375 771.332975 367.768343 767.256293 369.706765 C 765.577659 370.506114 761.900652 369.207172 761.900652 369.207172 L 757.304393 369.966553 C 757.304393 369.966553 753.227711 371.245512 751.948752 374.043235 C 750.669793 376.860942 747.612282 383.995135 747.612282 383.995135 C 747.612282 383.995135 747.732185 387.951914 747.612282 389.350776 C 747.512363 390.409914 749.131046 386.033476 749.131046 386.033476 Z M 749.131046 386.033476 " stroke="#000000" stroke-width="0.505" stroke-opacity="1" stroke-miterlimit="4"/></g><path stroke-linecap="butt" transform="matrix(0.195471, 0, 0, 0.195471, 614.503751, 312.283655)" fill-opacity="1" fill="#ffffff" fill-rule="nonzero" stroke-linejoin="miter" d="M 744.534787 394.206823 L 748.491566 385.673769 C 748.491566 385.673769 749.131046 387.832012 750.669793 386.293265 C 752.188557 384.774501 753.467516 383.235753 755.505857 383.495542 C 757.544198 383.75533 761.381075 382.73616 761.640864 381.457201 C 761.880669 380.178242 763.159628 380.43803 763.159628 381.716989 C 763.159628 382.975965 765.197968 384.774501 765.977334 384.774501 C 766.736716 384.774501 769.27465 388.851183 770.553609 389.870353 C 771.832568 390.889523 775.669445 394.686433 777.447998 394.7264 C 782.923541 394.846303 779.806078 396.604872 782.044257 399.062871 C 784.462288 401.740691 804.226202 402.120382 786.380727 402.380171 C 784.062614 402.400154 780.505509 402.380171 778.467168 405.437682 C 776.428827 408.495194 776.428827 404.6783 777.707786 403.399341 C 778.986745 402.120382 781.784468 401.361 777.707786 401.101212 C 773.631104 400.841423 770.813398 406.456853 771.57278 407.975616 C 772.352145 409.514364 769.034845 410.533534 771.57278 411.552705 C 774.130698 412.571875 779.22655 415.629387 780.24572 415.889175 C 781.264891 416.148964 785.601361 417.927516 783.56302 417.687711 C 781.524679 417.427923 775.669445 415.629387 774.89008 415.389582 C 774.130698 415.129793 770.813398 415.129793 770.054016 413.591046 C 769.27465 412.072282 767.496098 409.014771 769.034845 405.437682 C 770.553609 401.860594 770.313804 403.639146 769.534439 402.120382 C 768.775057 400.581635 772.59195 400.34183 768.515268 399.562464 C 764.438587 398.803082 761.880669 398.803082 761.880669 400.581635 C 761.880669 402.380171 758.823157 400.082041 758.823157 398.543294 C 758.823157 397.02453 756.525028 394.966205 756.525028 394.966205 C 756.525028 394.966205 754.746475 394.466612 754.226898 392.168482 C 753.727305 389.870353 749.650623 390.38993 748.371664 392.68806 C 747.092705 394.966205 744.534787 394.206823 744.534787 394.206823 Z M 744.534787 394.206823 " stroke="#000000" stroke-width="0.505" stroke-opacity="1" stroke-miterlimit="4"/><path stroke-linecap="butt" transform="matrix(0.195471, 0, 0, 0.195471, 614.503751, 312.283655)" fill-opacity="1" fill="#ffffff" fill-rule="nonzero" stroke-linejoin="miter" d="M 801.948056 434.773804 C 801.948056 434.773804 801.16869 430.437334 799.649927 430.936927 C 798.111179 431.456504 798.231081 430.657155 796.592415 431.716293 C 795.17357 432.595577 790.976986 430.177545 790.976986 430.177545 C 790.976986 430.177545 786.640515 430.697122 786.640515 426.600457 C 786.640515 424.622067 791.116872 425.081693 789.138482 420.425483 C 788.638889 419.246443 784.482272 421.744409 784.082597 422.263987 C 783.323216 423.283157 778.726957 419.965857 776.688616 420.985028 C 774.650275 422.024182 769.294634 419.965857 767.496098 420.225646 C 765.717546 420.485434 760.102116 421.764393 758.563369 421.244816 C 757.044605 420.745223 753.987093 418.706882 753.987093 418.706882 L 752.188557 415.129793 C 752.188557 415.129793 750.410005 412.312087 750.669793 411.053112 C 750.929582 409.774153 748.631453 410.533534 749.131046 412.312087 C 749.650623 414.110623 751.429175 417.427923 751.429175 417.427923 C 751.429175 417.427923 753.987093 420.485434 754.486687 422.024182 C 755.006264 423.542946 753.987093 422.523775 752.967923 423.542946 C 751.948752 424.562116 749.890428 424.302327 748.371664 424.302327 C 746.832916 424.302327 743.515617 424.062523 741.477276 423.043352 C 739.438935 422.024182 738.159976 424.062523 741.477276 424.562116 C 744.794576 425.081693 745.553957 426.600457 746.593112 426.600457 C 747.612282 426.600457 753.207728 426.600457 753.207728 428.398993 C 753.207728 430.177545 751.169387 430.437334 750.669793 432.215886 C 750.150216 434.014422 748.111875 435.273398 748.371664 436.292568 C 748.631453 437.311739 743.515617 437.071934 743.275812 438.350893 C 743.016023 439.609868 745.054364 440.629038 746.333323 440.389234 C 747.612282 440.129445 748.111875 440.389234 749.650623 438.350893 C 751.169387 436.292568 752.448346 434.254227 754.486687 433.494845 C 756.525028 432.735463 761.381075 430.177545 760.621693 432.215886 C 759.842328 434.254227 757.044605 436.552357 755.765646 437.311739 C 754.486687 438.091104 754.226898 440.129445 756.025434 439.370063 C 757.803987 438.590698 761.640864 435.792975 761.640864 435.792975 C 761.640864 435.792975 763.938993 434.514016 765.197968 434.254227 C 766.476927 434.014422 766.736716 434.514016 766.476927 436.552357 C 766.217139 438.590698 766.476927 438.350893 767.755886 438.590698 C 769.034845 438.850486 770.553609 440.129445 770.054016 440.888827 C 769.534439 441.648209 771.332975 442.687363 772.611934 442.687363 C 773.870909 442.687363 775.149868 442.927168 774.650275 444.725704 C 774.130698 446.504256 772.611934 448.043004 770.813398 448.282809 C 769.034845 448.542597 767.755886 450.081345 769.294634 450.32115 C 770.813398 450.580938 771.592763 450.580938 772.092357 451.859897 C 772.611934 453.138856 774.89008 452.879068 776.428827 451.859897 C 777.967575 450.840727 779.746127 450.081345 782.304045 449.821556 C 784.841979 449.561768 783.56302 454.917409 782.803638 454.917409 C 782.044257 454.917409 781.524679 461.552008 784.082597 459.513668 C 786.640515 457.475327 787.399897 457.735115 786.88032 460.033245 C 786.380727 462.31139 786.640515 464.60952 785.86115 466.907649 C 785.101768 469.205779 782.803638 476.599761 785.101768 474.821208 C 787.399897 473.042656 791.736368 470.224949 791.736368 468.186608 C 791.736368 466.148267 794.793879 463.850138 794.534091 467.687015 C 794.294286 471.503908 794.294286 474.56142 793.51492 475.58059 C 792.755538 476.599761 792.255945 479.91706 790.717197 480.696426 C 789.17845 481.455808 784.082597 485.53249 782.044257 486.052067 C 780.005916 486.55166 776.428827 488.21031 782.54385 487.450928 C 788.678856 486.691546 787.659686 488.090408 787.140109 489.109578 C 786.640515 490.128749 791.736368 489.369367 794.534091 488.590001 C 797.351797 487.830619 807.303697 483.494149 807.303697 481.196019 C 807.303697 478.89789 807.543502 473.542249 808.822461 472.26329 C 810.10142 470.984331 808.822461 467.687015 807.543502 463.090756 C 806.284526 458.494497 801.428479 448.542597 800.14952 446.764045 C 798.870561 444.965509 796.83222 443.446745 798.870561 441.408404 C 800.928886 439.370063 800.669097 439.110275 800.669097 437.831316 C 800.669097 436.552357 801.948056 434.773804 801.948056 434.773804 Z M 801.948056 434.773804 " stroke="#000000" stroke-width="0.505" stroke-opacity="1" stroke-miterlimit="4"/><g clip-path="url(#cddb7bad08)"><path fill="#ffffff" d="M 759.890625 390.039062 C 759.890625 390.039062 759.09375 391.382812 758.84375 391.683594 C 758.59375 391.984375 757.898438 392.832031 757.898438 393.128906 C 757.898438 393.429688 757.449219 393.628906 757.449219 393.628906 C 757.449219 393.628906 757.296875 393.976562 757.148438 394.226562 C 757 394.476562 756.5 395.421875 756.5 395.671875 C 756.5 395.921875 755.652344 397.019531 755.902344 397.320312 C 756.152344 397.617188 756.800781 398.367188 756.898438 398.566406 C 757 398.765625 758.097656 399.8125 758.246094 400.160156 C 758.394531 400.511719 759.59375 402.15625 759.742188 402.605469 C 759.890625 403.054688 760.738281 404.449219 760.9375 404.648438 C 761.136719 404.847656 761.636719 405.296875 761.738281 405.84375 C 761.835938 406.394531 762.359375 406.570312 762.507812 406.769531 C 762.660156 406.96875 762.726562 406.972656 762.984375 407.09375 C 763.289062 407.234375 765.625 407.640625 765.925781 407.589844 C 766.222656 407.539062 768.46875 407.464844 766.222656 407.640625 C 765.667969 407.683594 764.230469 407.390625 764.03125 407.492188 C 763.832031 407.589844 762.683594 407.492188 763.234375 407.589844 C 763.78125 407.691406 765.578125 407.941406 765.777344 407.941406 C 765.976562 407.941406 767.070312 408.039062 767.273438 408.140625 C 767.472656 408.238281 768.867188 408.4375 768.867188 408.4375 C 768.867188 408.4375 769.367188 408.9375 768.765625 408.789062 C 768.167969 408.636719 767.371094 408.339844 767.222656 408.386719 C 767.070312 408.4375 766.222656 408.289062 766.222656 408.289062 C 766.222656 408.289062 764.578125 407.941406 764.378906 407.988281 C 764.179688 408.039062 763.480469 407.988281 763.332031 407.941406 C 763.183594 407.890625 762.734375 407.691406 762.785156 408.140625 C 762.832031 408.589844 762.734375 408.488281 762.585938 408.339844 C 762.433594 408.1875 762.183594 407.988281 762.085938 407.539062 C 761.984375 407.09375 761.886719 406.59375 761.636719 406.445312 C 761.386719 406.292969 760.042969 403.851562 759.890625 403.652344 C 759.742188 403.453125 758.59375 401.507812 758.097656 401.109375 C 757.597656 400.710938 757.25 399.613281 756.550781 399.0625 C 755.851562 398.515625 755.304688 397.765625 755.554688 396.71875 C 755.800781 395.671875 756.5 395.074219 756.699219 394.375 C 756.898438 393.679688 757.25 393.230469 757.597656 392.730469 C 757.945312 392.230469 759.042969 390.785156 759.242188 390.488281 C 759.441406 390.1875 760.238281 388.988281 760.515625 388.992188 C 761.070312 388.992188 759.890625 390.039062 759.890625 390.039062 Z M 759.890625 390.039062 " fill-opacity="1" fill-rule="nonzero"/></g><g clip-path="url(#279326609b)"><path stroke-linecap="butt" transform="matrix(0.195471, 0, 0, 0.195471, 614.503751, 312.283655)" fill="none" stroke-linejoin="miter" d="M 743.775405 397.783912 C 743.775405 397.783912 739.698723 404.658316 738.419764 406.197064 C 737.140805 407.735812 733.583701 412.072282 733.583701 413.591046 C 733.583701 415.129793 731.285571 416.148964 731.285571 416.148964 C 731.285571 416.148964 730.506205 417.927516 729.746824 419.206475 C 728.987442 420.485434 726.429524 425.321498 726.429524 426.600457 C 726.429524 427.879416 722.093053 433.494845 723.372012 435.033593 C 724.650971 436.552357 727.968271 440.389234 728.467865 441.408404 C 728.987442 442.427575 734.602871 447.783215 735.362253 449.561768 C 736.121635 451.360304 742.256641 459.773456 743.016023 462.071586 C 743.775405 464.369715 748.111875 471.503908 749.131046 472.523079 C 750.150216 473.542249 752.708134 475.840379 753.227711 478.638101 C 753.727305 481.455808 756.405125 482.355076 757.164507 483.374246 C 757.943873 484.393417 758.283596 484.413401 759.602523 485.032896 C 761.161254 485.752311 773.111527 487.830619 774.650275 487.570831 C 776.169039 487.311042 787.659686 486.931351 776.169039 487.830619 C 773.331348 488.05044 765.977334 486.55166 764.958164 487.071237 C 763.938993 487.570831 758.063775 487.071237 760.881482 487.570831 C 763.679205 488.090408 772.871722 489.369367 773.890893 489.369367 C 774.910063 489.369367 780.505509 489.86896 781.544663 490.388537 C 782.563834 490.888131 789.698027 491.907301 789.698027 491.907301 C 789.698027 491.907301 792.255945 494.465219 789.17845 493.705837 C 786.120938 492.926472 782.044257 491.407708 781.284875 491.647513 C 780.505509 491.907301 776.169039 491.147919 776.169039 491.147919 C 776.169039 491.147919 767.755886 489.369367 766.736716 489.609172 C 765.717546 489.86896 762.140457 489.609172 761.381075 489.369367 C 760.621693 489.109578 758.323564 488.090408 758.583352 490.388537 C 758.823157 492.686667 758.323564 492.16709 757.564182 491.407708 C 756.784816 490.628342 755.505857 489.609172 755.006264 487.311042 C 754.486687 485.032896 753.987093 482.474978 752.708134 481.715597 C 751.429175 480.936231 744.554771 468.446397 743.775405 467.427226 C 743.016023 466.408056 737.140805 456.456156 734.602871 454.417815 C 732.044953 452.379474 730.266401 446.764045 726.689312 443.946338 C 723.112224 441.148616 720.314501 437.311739 721.59346 431.956098 C 722.852435 426.600457 726.429524 423.542946 727.448694 419.965857 C 728.467865 416.408752 730.266401 414.110623 732.044953 411.552705 C 733.823505 408.994787 739.438935 401.600805 740.458105 400.082041 C 741.477276 398.543294 745.553957 392.408287 746.972803 392.428271 C 749.810493 392.428271 743.775405 397.783912 743.775405 397.783912 Z M 743.775405 397.783912 " stroke="#000000" stroke-width="0.505" stroke-opacity="1" stroke-miterlimit="4"/></g><g fill="#ffffff" fill-opacity="1"><g transform="translate(527.24998, 423.499979)"><g><path d="M 56.546875 -38.609375 L 46.46875 0 L 35.09375 0 L 28.9375 -25.40625 L 22.546875 0 L 11.171875 0 L 1.375 -38.609375 L 11.4375 -38.609375 L 17 -10.5 L 23.875 -38.609375 L 34.203125 -38.609375 L 40.8125 -10.5 L 46.421875 -38.609375 Z M 56.546875 -38.609375 "/></g></g></g><g fill="#ffffff" fill-opacity="1"><g transform="translate(585.105789, 423.499979)"><g><path d="M 1.546875 -15.40625 C 1.546875 -18.550781 2.140625 -21.316406 3.328125 -23.703125 C 4.515625 -26.085938 6.132812 -27.921875 8.1875 -29.203125 C 10.25 -30.484375 12.539062 -31.125 15.0625 -31.125 C 17.226562 -31.125 19.125 -30.679688 20.75 -29.796875 C 22.382812 -28.921875 23.644531 -27.769531 24.53125 -26.34375 L 24.53125 -30.6875 L 33.9375 -30.6875 L 33.9375 0 L 24.53125 0 L 24.53125 -4.34375 C 23.613281 -2.914062 22.335938 -1.757812 20.703125 -0.875 C 19.078125 0 17.179688 0.4375 15.015625 0.4375 C 12.523438 0.4375 10.25 -0.210938 8.1875 -1.515625 C 6.132812 -2.816406 4.515625 -4.664062 3.328125 -7.0625 C 2.140625 -9.46875 1.546875 -12.25 1.546875 -15.40625 Z M 24.53125 -15.34375 C 24.53125 -17.6875 23.878906 -19.535156 22.578125 -20.890625 C 21.273438 -22.253906 19.6875 -22.9375 17.8125 -22.9375 C 15.945312 -22.9375 14.363281 -22.265625 13.0625 -20.921875 C 11.757812 -19.585938 11.109375 -17.75 11.109375 -15.40625 C 11.109375 -13.050781 11.757812 -11.1875 13.0625 -9.8125 C 14.363281 -8.4375 15.945312 -7.75 17.8125 -7.75 C 19.6875 -7.75 21.273438 -8.425781 22.578125 -9.78125 C 23.878906 -11.144531 24.53125 -13 24.53125 -15.34375 Z M 24.53125 -15.34375 "/></g></g></g><g fill="#ffffff" fill-opacity="1"><g transform="translate(622.448076, 423.499979)"><g><path d="M 12.8125 -25.578125 C 13.914062 -27.265625 15.289062 -28.59375 16.9375 -29.5625 C 18.59375 -30.53125 20.425781 -31.015625 22.4375 -31.015625 L 22.4375 -21.0625 L 19.859375 -21.0625 C 17.503906 -21.0625 15.738281 -20.554688 14.5625 -19.546875 C 13.394531 -18.546875 12.8125 -16.78125 12.8125 -14.25 L 12.8125 0 L 3.40625 0 L 3.40625 -30.6875 L 12.8125 -30.6875 Z M 12.8125 -25.578125 "/></g></g></g><g fill="#ffffff" fill-opacity="1"><g transform="translate(645.986374, 423.499979)"><g><path d="M 15.0625 -31.125 C 17.226562 -31.125 19.125 -30.679688 20.75 -29.796875 C 22.382812 -28.921875 23.644531 -27.769531 24.53125 -26.34375 L 24.53125 -30.6875 L 33.9375 -30.6875 L 33.9375 -0.0625 C 33.9375 2.769531 33.375 5.332031 32.25 7.625 C 31.132812 9.914062 29.429688 11.738281 27.140625 13.09375 C 24.847656 14.445312 22 15.125 18.59375 15.125 C 14.039062 15.125 10.351562 14.050781 7.53125 11.90625 C 4.707031 9.757812 3.09375 6.851562 2.6875 3.1875 L 11.984375 3.1875 C 12.285156 4.363281 12.984375 5.289062 14.078125 5.96875 C 15.179688 6.644531 16.539062 6.984375 18.15625 6.984375 C 20.09375 6.984375 21.640625 6.421875 22.796875 5.296875 C 23.953125 4.179688 24.53125 2.394531 24.53125 -0.0625 L 24.53125 -4.40625 C 23.613281 -2.96875 22.347656 -1.800781 20.734375 -0.90625 C 19.117188 -0.0078125 17.226562 0.4375 15.0625 0.4375 C 12.539062 0.4375 10.25 -0.210938 8.1875 -1.515625 C 6.132812 -2.816406 4.515625 -4.664062 3.328125 -7.0625 C 2.140625 -9.46875 1.546875 -12.25 1.546875 -15.40625 C 1.546875 -18.550781 2.140625 -21.316406 3.328125 -23.703125 C 4.515625 -26.085938 6.132812 -27.921875 8.1875 -29.203125 C 10.25 -30.484375 12.539062 -31.125 15.0625 -31.125 Z M 24.53125 -15.34375 C 24.53125 -17.6875 23.878906 -19.535156 22.578125 -20.890625 C 21.273438 -22.253906 19.6875 -22.9375 17.8125 -22.9375 C 15.945312 -22.9375 14.363281 -22.265625 13.0625 -20.921875 C 11.757812 -19.585938 11.109375 -17.75 11.109375 -15.40625 C 11.109375 -13.050781 11.757812 -11.1875 13.0625 -9.8125 C 14.363281 -8.4375 15.945312 -7.75 17.8125 -7.75 C 19.6875 -7.75 21.273438 -8.425781 22.578125 -9.78125 C 23.878906 -11.144531 24.53125 -13 24.53125 -15.34375 Z M 24.53125 -15.34375 "/></g></g></g><g fill="#ffffff" fill-opacity="1"><g transform="translate(683.328662, 423.499979)"><g><path d="M 1.546875 -15.40625 C 1.546875 -18.550781 2.140625 -21.316406 3.328125 -23.703125 C 4.515625 -26.085938 6.132812 -27.921875 8.1875 -29.203125 C 10.25 -30.484375 12.539062 -31.125 15.0625 -31.125 C 17.226562 -31.125 19.125 -30.679688 20.75 -29.796875 C 22.382812 -28.921875 23.644531 -27.769531 24.53125 -26.34375 L 24.53125 -30.6875 L 33.9375 -30.6875 L 33.9375 0 L 24.53125 0 L 24.53125 -4.34375 C 23.613281 -2.914062 22.335938 -1.757812 20.703125 -0.875 C 19.078125 0 17.179688 0.4375 15.015625 0.4375 C 12.523438 0.4375 10.25 -0.210938 8.1875 -1.515625 C 6.132812 -2.816406 4.515625 -4.664062 3.328125 -7.0625 C 2.140625 -9.46875 1.546875 -12.25 1.546875 -15.40625 Z M 24.53125 -15.34375 C 24.53125 -17.6875 23.878906 -19.535156 22.578125 -20.890625 C 21.273438 -22.253906 19.6875 -22.9375 17.8125 -22.9375 C 15.945312 -22.9375 14.363281 -22.265625 13.0625 -20.921875 C 11.757812 -19.585938 11.109375 -17.75 11.109375 -15.40625 C 11.109375 -13.050781 11.757812 -11.1875 13.0625 -9.8125 C 14.363281 -8.4375 15.945312 -7.75 17.8125 -7.75 C 19.6875 -7.75 21.273438 -8.425781 22.578125 -9.78125 C 23.878906 -11.144531 24.53125 -13 24.53125 -15.34375 Z M 24.53125 -15.34375 "/></g></g></g><g fill="#ffffff" fill-opacity="1"><g transform="translate(720.67096, 423.499979)"><g><path d="M 26.78125 -19.796875 C 29.019531 -19.316406 30.816406 -18.207031 32.171875 -16.46875 C 33.523438 -14.726562 34.203125 -12.738281 34.203125 -10.5 C 34.203125 -7.28125 33.070312 -4.722656 30.8125 -2.828125 C 28.5625 -0.941406 25.421875 0 21.390625 0 L 3.40625 0 L 3.40625 -38.609375 L 20.796875 -38.609375 C 24.710938 -38.609375 27.78125 -37.707031 30 -35.90625 C 32.21875 -34.113281 33.328125 -31.675781 33.328125 -28.59375 C 33.328125 -26.320312 32.726562 -24.4375 31.53125 -22.9375 C 30.34375 -21.4375 28.757812 -20.390625 26.78125 -19.796875 Z M 12.8125 -22.984375 L 18.96875 -22.984375 C 20.507812 -22.984375 21.691406 -23.320312 22.515625 -24 C 23.347656 -24.6875 23.765625 -25.6875 23.765625 -27 C 23.765625 -28.320312 23.347656 -29.332031 22.515625 -30.03125 C 21.691406 -30.726562 20.507812 -31.078125 18.96875 -31.078125 L 12.8125 -31.078125 Z M 19.75 -7.59375 C 21.320312 -7.59375 22.535156 -7.945312 23.390625 -8.65625 C 24.253906 -9.375 24.6875 -10.410156 24.6875 -11.765625 C 24.6875 -13.128906 24.238281 -14.191406 23.34375 -14.953125 C 22.445312 -15.722656 21.210938 -16.109375 19.640625 -16.109375 L 12.8125 -16.109375 L 12.8125 -7.59375 Z M 19.75 -7.59375 "/></g></g></g><g fill="#ffffff" fill-opacity="1"><g transform="translate(756.914031, 423.499979)"><g/></g></g><g fill="#ffffff" fill-opacity="1"><g transform="translate(768.573191, 423.499979)"><g/></g></g><g fill="#ffffff" fill-opacity="1"><g transform="translate(780.234342, 423.499979)"><g><path d="M 1.546875 -15.34375 C 1.546875 -18.53125 2.191406 -21.316406 3.484375 -23.703125 C 4.785156 -26.085938 6.601562 -27.921875 8.9375 -29.203125 C 11.269531 -30.484375 13.9375 -31.125 16.9375 -31.125 C 20.789062 -31.125 24.007812 -30.113281 26.59375 -28.09375 C 29.175781 -26.082031 30.875 -23.242188 31.6875 -19.578125 L 21.671875 -19.578125 C 20.828125 -21.921875 19.195312 -23.09375 16.78125 -23.09375 C 15.050781 -23.09375 13.671875 -22.421875 12.640625 -21.078125 C 11.617188 -19.742188 11.109375 -17.832031 11.109375 -15.34375 C 11.109375 -12.851562 11.617188 -10.9375 12.640625 -9.59375 C 13.671875 -8.257812 15.050781 -7.59375 16.78125 -7.59375 C 19.195312 -7.59375 20.828125 -8.765625 21.671875 -11.109375 L 31.6875 -11.109375 C 30.875 -7.515625 29.164062 -4.691406 26.5625 -2.640625 C 23.957031 -0.585938 20.75 0.4375 16.9375 0.4375 C 13.9375 0.4375 11.269531 -0.203125 8.9375 -1.484375 C 6.601562 -2.765625 4.785156 -4.597656 3.484375 -6.984375 C 2.191406 -9.367188 1.546875 -12.15625 1.546875 -15.34375 Z M 1.546875 -15.34375 "/></g></g></g><g fill="#ffffff" fill-opacity="1"><g transform="translate(813.506927, 423.499979)"><g><path d="M 1.546875 -15.40625 C 1.546875 -18.550781 2.140625 -21.316406 3.328125 -23.703125 C 4.515625 -26.085938 6.132812 -27.921875 8.1875 -29.203125 C 10.25 -30.484375 12.539062 -31.125 15.0625 -31.125 C 17.226562 -31.125 19.125 -30.679688 20.75 -29.796875 C 22.382812 -28.921875 23.644531 -27.769531 24.53125 -26.34375 L 24.53125 -30.6875 L 33.9375 -30.6875 L 33.9375 0 L 24.53125 0 L 24.53125 -4.34375 C 23.613281 -2.914062 22.335938 -1.757812 20.703125 -0.875 C 19.078125 0 17.179688 0.4375 15.015625 0.4375 C 12.523438 0.4375 10.25 -0.210938 8.1875 -1.515625 C 6.132812 -2.816406 4.515625 -4.664062 3.328125 -7.0625 C 2.140625 -9.46875 1.546875 -12.25 1.546875 -15.40625 Z M 24.53125 -15.34375 C 24.53125 -17.6875 23.878906 -19.535156 22.578125 -20.890625 C 21.273438 -22.253906 19.6875 -22.9375 17.8125 -22.9375 C 15.945312 -22.9375 14.363281 -22.265625 13.0625 -20.921875 C 11.757812 -19.585938 11.109375 -17.75 11.109375 -15.40625 C 11.109375 -13.050781 11.757812 -11.1875 13.0625 -9.8125 C 14.363281 -8.4375 15.945312 -7.75 17.8125 -7.75 C 19.6875 -7.75 21.273438 -8.425781 22.578125 -9.78125 C 23.878906 -11.144531 24.53125 -13 24.53125 -15.34375 Z M 24.53125 -15.34375 "/></g></g></g><g fill="#ffffff" fill-opacity="1"><g transform="translate(850.849214, 423.499979)"><g><path d="M 12.8125 -25.578125 C 13.914062 -27.265625 15.289062 -28.59375 16.9375 -29.5625 C 18.59375 -30.53125 20.425781 -31.015625 22.4375 -31.015625 L 22.4375 -21.0625 L 19.859375 -21.0625 C 17.503906 -21.0625 15.738281 -20.554688 14.5625 -19.546875 C 13.394531 -18.546875 12.8125 -16.78125 12.8125 -14.25 L 12.8125 0 L 3.40625 0 L 3.40625 -30.6875 L 12.8125 -30.6875 Z M 12.8125 -25.578125 "/></g></g></g><g fill="#ffffff" fill-opacity="1"><g transform="translate(874.387512, 423.499979)"><g><path d="M 1.546875 -15.40625 C 1.546875 -18.550781 2.140625 -21.316406 3.328125 -23.703125 C 4.515625 -26.085938 6.132812 -27.921875 8.1875 -29.203125 C 10.25 -30.484375 12.539062 -31.125 15.0625 -31.125 C 17.226562 -31.125 19.125 -30.679688 20.75 -29.796875 C 22.382812 -28.921875 23.644531 -27.769531 24.53125 -26.34375 L 24.53125 -30.6875 L 33.9375 -30.6875 L 33.9375 0 L 24.53125 0 L 24.53125 -4.34375 C 23.613281 -2.914062 22.335938 -1.757812 20.703125 -0.875 C 19.078125 0 17.179688 0.4375 15.015625 0.4375 C 12.523438 0.4375 10.25 -0.210938 8.1875 -1.515625 C 6.132812 -2.816406 4.515625 -4.664062 3.328125 -7.0625 C 2.140625 -9.46875 1.546875 -12.25 1.546875 -15.40625 Z M 24.53125 -15.34375 C 24.53125 -17.6875 23.878906 -19.535156 22.578125 -20.890625 C 21.273438 -22.253906 19.6875 -22.9375 17.8125 -22.9375 C 15.945312 -22.9375 14.363281 -22.265625 13.0625 -20.921875 C 11.757812 -19.585938 11.109375 -17.75 11.109375 -15.40625 C 11.109375 -13.050781 11.757812 -11.1875 13.0625 -9.8125 C 14.363281 -8.4375 15.945312 -7.75 17.8125 -7.75 C 19.6875 -7.75 21.273438 -8.425781 22.578125 -9.78125 C 23.878906 -11.144531 24.53125 -13 24.53125 -15.34375 Z M 24.53125 -15.34375 "/></g></g></g></svg>